<?xml version="1.0" encoding="UTF-8"?><svg xmlns="http://www.w3.org/2000/svg" xmlns:xlink="http://www.w3.org/1999/xlink" viewBox="0 0 24 24" version="1.1"><path d="M17 3H7c-1.102 0-2 .898-2 2v14c0 1.102.898 2 2 2h10c1.102 0 2-.898 2-2V5c0-1.102-.898-2-2-2zM8 18v-3l2 1.5zm8 0h-2v-5.027c0-.575-.543-2.203-5.988.027C8 13.035 8 6.016 8 6.016L10 6v4.367S16 8.613 16 13zm-.992-10H13c.633-.965 1.129-2 1.129-2h1.883s-.258.828-1.004 2z" id="surface1"/><metadata><rdf:RDF xmlns:rdf="http://www.w3.org/1999/02/22-rdf-syntax-ns#" xmlns:rdfs="http://www.w3.org/2000/01/rdf-schema#" xmlns:dc="http://purl.org/dc/elements/1.1/"><rdf:Description about="https://iconscout.com/legal#licenses" dc:title="heroku" dc:description="heroku" dc:publisher="Iconscout" dc:date="2018-06-22" dc:format="image/svg+xml" dc:language="en"><dc:creator><rdf:Bag><rdf:li>Icons8</rdf:li></rdf:Bag></dc:creator></rdf:Description></rdf:RDF></metadata></svg>