<?xml version="1.0" encoding="UTF-8"?>
<svg xmlns="http://www.w3.org/2000/svg" xmlns:xlink="http://www.w3.org/1999/xlink" viewBox="0 0 240 240" width="240px" height="240px">
<g id="surface58262621">
<path style=" stroke:none;fill-rule:nonzero;fill:rgb(100%,100%,100%);fill-opacity:1;" d="M 220.414062 148.949219 C 219.5 144.804688 215.738281 139.96875 208.15625 139.96875 C 206.605469 139.96875 204.910156 140.164062 202.980469 140.566406 C 199.441406 141.296875 196.425781 141.648438 193.769531 141.769531 C 214.433594 106.570312 227.851562 57.675781 214.566406 40.699219 C 197.058594 18.335938 173.496094 14.996094 161.011719 14.996094 L 159.835938 15 C 155.191406 15.074219 150.371094 15.644531 145.519531 16.695312 L 127.605469 20.566406 C 125.164062 20.261719 122.679688 20.046875 120.089844 20 L 119.859375 20 L 119.101562 19.996094 C 111.136719 19.996094 103.871094 21.683594 97.394531 24.859375 L 91.140625 22.394531 C 82.539062 19.003906 69.601562 14.96875 56.800781 14.96875 C 56.078125 14.96875 55.363281 14.984375 54.644531 15.011719 C 42.035156 15.464844 31.203125 20.25 23.320312 28.84375 C 13.480469 39.574219 9 55.269531 10.015625 75.5 C 10.066406 76.546875 22.304688 180 57 180 L 57.125 180 L 57.445312 179.996094 C 61.949219 179.886719 66.246094 178.074219 70.261719 174.609375 C 73.324219 176.910156 77.289062 178.269531 80.984375 178.808594 C 83.425781 179.386719 87.816406 180.199219 93.074219 180.199219 C 99.496094 180.199219 105.285156 178.886719 110.273438 176.511719 C 110.269531 180.910156 110.246094 186.480469 110.195312 193.601562 L 110.191406 193.976562 L 110.214844 194.351562 C 110.699219 201.445312 111.925781 207.839844 113.769531 212.855469 C 119.023438 227.148438 128.101562 235.023438 139.324219 235.023438 C 139.789062 235.023438 140.265625 235.011719 140.746094 234.980469 C 149.976562 234.410156 159.328125 229.226562 165.765625 221.121094 C 172.730469 212.34375 174.339844 203.085938 174.960938 195.988281 L 175 195.554688 L 175 174.71875 L 175.515625 174.769531 L 177.695312 174.960938 L 177.90625 174.980469 L 178.113281 174.988281 C 178.734375 175.019531 179.375 175.03125 180.019531 175.03125 C 187.554688 175.03125 196.828125 173.074219 203.101562 170.160156 C 209.09375 167.378906 222.796875 159.738281 220.414062 148.949219 Z M 220.414062 148.949219 "/>
<path style=" stroke:none;fill-rule:nonzero;fill:rgb(0%,0%,0%);fill-opacity:1;" d="M 165 170 C 165 168.976562 165.058594 168.121094 165.089844 167.175781 C 165.039062 165.921875 165 165 165 165 C 165 165 165.058594 164.953125 165.160156 164.890625 C 165.90625 151.523438 169.589844 146.375 173.535156 143.441406 C 172.984375 142.675781 172.351562 141.851562 171.753906 141.066406 C 170.089844 138.878906 168.015625 136.171875 165.796875 132.695312 L 165.386719 131.90625 C 165.050781 131.085938 164.238281 129.671875 163.210938 127.808594 C 157.296875 117.109375 144.984375 94.851562 153.410156 80.789062 C 157.101562 74.628906 164.019531 71.078125 174.015625 70.203125 C 169.929688 58.589844 154.625 30.574219 119.925781 30 C 119.914062 30 119.90625 30 119.894531 30 C 89.691406 29.511719 79.765625 56.960938 76.535156 73.359375 C 80.984375 71.476562 86.066406 70.328125 90.714844 70.328125 C 90.785156 70.328125 90.859375 70.328125 90.929688 70.328125 C 102.378906 70.414062 110.253906 76.523438 112.546875 87.101562 C 114.21875 94.859375 115.023438 101.648438 115.003906 107.863281 C 114.953125 121.460938 112.214844 128.609375 109.796875 134.921875 L 109.023438 136.960938 C 108.40625 138.628906 107.75 140.183594 107.128906 141.644531 C 106.5 143.136719 105.945312 144.460938 105.539062 145.65625 C 107.960938 146.203125 109.859375 146.980469 111.164062 147.554688 L 111.921875 147.886719 C 112.15625 147.984375 112.390625 148.101562 112.605469 148.230469 C 116.84375 150.808594 119.484375 154.773438 120.050781 159.394531 C 120.355469 161.886719 120.304688 178.859375 120.199219 193.671875 C 120.636719 200.09375 121.726562 205.488281 123.164062 209.398438 C 125.210938 214.96875 130.320312 225.605469 140.136719 224.996094 C 146.984375 224.570312 153.570312 220.398438 157.941406 214.898438 C 162.628906 208.996094 164.359375 202.464844 165.011719 195.109375 L 165.011719 170 Z M 165 170 "/>
<path style=" stroke:none;fill-rule:nonzero;fill:rgb(0%,0%,0%);fill-opacity:1;" d="M 75.570312 144.585938 C 67.503906 136.171875 63.574219 124.851562 65.050781 114.304688 C 66.476562 104.128906 65.671875 94.171875 65.234375 88.816406 C 65.089844 87.03125 64.996094 85.699219 65 84.964844 C 65 84.925781 65.011719 84.890625 65.015625 84.851562 C 65.015625 84.828125 65.003906 84.816406 65.003906 84.796875 C 65.609375 69.691406 71.433594 45.859375 87.46875 31.695312 C 79.660156 28.621094 66.941406 24.566406 55 25 C 36.289062 25.679688 18.179688 38.621094 20 75 C 20.683594 88.648438 36.109375 170.515625 57.199219 170 C 60.214844 169.925781 63.34375 167.988281 66.558594 164.121094 C 71.644531 158.003906 76.585938 152.460938 80.101562 148.601562 C 78.523438 147.40625 77.003906 146.085938 75.570312 144.585938 Z M 185.113281 73.65625 C 185.191406 74.425781 185.125 75.085938 185.003906 75.695312 C 185.160156 80.296875 184.664062 84.761719 184.160156 89.078125 C 183.789062 92.261719 183.410156 95.546875 183.304688 98.839844 C 183.199219 102.066406 183.65625 105.25 184.136719 108.621094 C 185.261719 116.511719 186.429688 125.414062 180.308594 135.804688 C 181.433594 137.285156 182.425781 138.660156 183.214844 139.988281 C 206.265625 102.613281 215.554688 58.183594 206.691406 46.859375 C 193.273438 29.71875 174.703125 24.761719 159.996094 25 C 155.390625 25.074219 151.203125 25.695312 147.628906 26.46875 C 173.011719 38.769531 184.316406 65.128906 185.113281 73.65625 Z M 205 150.355469 C 191.675781 153.105469 185.265625 151.640625 182.15625 149.726562 C 181.65625 150.085938 181.15625 150.390625 180.691406 150.675781 C 178.828125 151.800781 175.886719 153.589844 175.164062 164.585938 C 175.578125 164.664062 175.945312 164.710938 176.394531 164.804688 L 178.570312 165 C 185.171875 165.300781 193.816406 163.449219 198.886719 161.09375 C 209.808594 156.023438 215.765625 148.136719 205 150.355469 Z M 110.113281 160.59375 C 109.929688 159.105469 109.125 157.898438 107.65625 156.933594 L 107.113281 156.699219 C 105.308594 155.90625 103.265625 155 100 155 L 99.980469 155 C 99.34375 155.050781 98.714844 155.09375 98.078125 155.09375 C 97.820312 155.09375 97.566406 155.058594 97.304688 155.050781 C 94.933594 156.875 91.566406 158.285156 83.226562 160 C 68.324219 163.796875 77.121094 168.273438 82.835938 168.96875 C 88.363281 170.355469 101.511719 172.039062 110.238281 164.925781 C 110.214844 162.683594 110.175781 161.144531 110.113281 160.59375 Z M 110.113281 160.59375 "/>
<path style=" stroke:none;fill-rule:nonzero;fill:rgb(0%,0%,0%);fill-opacity:1;" d="M 103.40625 92.503906 C 101.945312 94.015625 99.640625 95.335938 97.09375 94.925781 C 92.953125 94.253906 89.78125 89.261719 90.011719 87.386719 C 90.230469 85.515625 93.765625 84.539062 97.898438 85.210938 C 99.335938 85.445312 100.640625 85.851562 101.738281 86.351562 C 100.140625 82.910156 97.246094 80.925781 92.828125 80.441406 C 85.003906 79.570312 76.699219 83.660156 75.03125 85.925781 C 75.066406 86.476562 75.128906 87.179688 75.195312 88.011719 C 75.660156 93.746094 76.519531 104.429688 74.945312 115.695312 C 73.90625 123.121094 76.910156 131.539062 82.78125 137.671875 C 86.566406 141.621094 90.984375 144.121094 95.34375 144.859375 C 95.898438 142.46875 96.890625 140.140625 97.910156 137.734375 C 98.476562 136.410156 99.074219 135 99.640625 133.476562 L 100.449219 131.339844 C 102.664062 125.566406 104.949219 119.589844 104.996094 107.824219 C 105.015625 103.300781 104.460938 98.136719 103.40625 92.503906 Z M 174.234375 110.035156 C 173.714844 106.390625 173.179688 102.613281 173.308594 98.519531 C 173.425781 94.808594 173.835938 91.308594 174.230469 87.925781 C 174.539062 85.261719 174.78125 82.699219 174.921875 80.175781 C 168.476562 80.710938 164.195312 82.570312 162.164062 85.714844 C 163.003906 85.429688 163.953125 85.203125 165.003906 85.070312 C 169.464844 84.488281 172.71875 85.773438 173.09375 88.253906 C 173.371094 90.070312 171.828125 91.78125 171.15625 92.433594 C 169.769531 93.78125 168.023438 94.644531 166.25 94.875 C 165.929688 94.914062 165.605469 94.933594 165.289062 94.933594 C 163.523438 94.933594 161.839844 94.328125 160.546875 93.433594 C 161.105469 103.300781 168.378906 116.496094 171.960938 122.96875 C 172.726562 124.355469 173.316406 125.460938 173.804688 126.410156 C 175.769531 120.816406 175.046875 115.714844 174.234375 110.035156 Z M 174.234375 110.035156 "/>
</g>
</svg>
