<?xml version="1.0" encoding="UTF-8"?>
<svg xmlns="http://www.w3.org/2000/svg" xmlns:xlink="http://www.w3.org/1999/xlink" viewBox="0 0 256 256" width="256px" height="256px">
<g id="surface41867268">
<path style=" stroke:none;fill-rule:nonzero;fill:rgb(0%,0%,0%);fill-opacity:1;" d="M 182.0625 16.007812 C 181.25 16.011719 180.441406 16.074219 179.640625 16.195312 C 176.433594 16.675781 173.359375 18.070312 170.84375 20.320312 L 83.851562 96.609375 L 45.164062 65.820312 C 45.152344 65.808594 45.144531 65.800781 45.132812 65.789062 C 41.84375 63.234375 37.085938 63.53125 34.140625 66.476562 L 18.4375 82.179688 C 15.117188 85.5 15.246094 91.058594 18.71875 94.21875 L 51.65625 124.84375 L 18.828125 153.625 C 18.824219 153.628906 18.824219 153.628906 18.820312 153.632812 C 15.265625 156.769531 15.089844 162.402344 18.445312 165.757812 L 34.132812 181.445312 C 37.046875 184.359375 41.730469 184.6875 45.023438 182.210938 L 45.039062 182.203125 L 82.851562 153.859375 L 170.78125 235.625 C 170.800781 235.644531 170.816406 235.660156 170.835938 235.679688 C 175.867188 240.183594 183.128906 241.269531 189.257812 238.4375 C 189.304688 238.414062 189.351562 238.390625 189.398438 238.367188 L 231.289062 216.992188 C 236.636719 214.265625 240.023438 208.746094 240.023438 202.742188 L 240.023438 49.554688 C 240.023438 43.128906 236.148438 37.296875 230.226562 34.804688 L 189.257812 17.5625 C 186.957031 16.503906 184.5 15.992188 182.0625 16.007812 Z M 183.390625 24.085938 C 184.246094 24.207031 185.09375 24.453125 185.90625 24.828125 C 185.949219 24.847656 185.988281 24.867188 186.03125 24.882812 L 227.125 42.179688 C 230.097656 43.429688 232.023438 46.328125 232.023438 49.554688 L 232.023438 202.742188 C 232.023438 205.753906 230.339844 208.5 227.65625 209.867188 L 185.898438 231.171875 C 184.457031 231.839844 182.910156 232.03125 181.398438 231.90625 C 185.046875 229.210938 188.015625 224.019531 188.015625 216.054688 L 188.015625 40.0625 C 188.015625 32.054688 185.03125 26.835938 181.382812 24.101562 C 182.050781 24.042969 182.722656 23.992188 183.390625 24.085938 Z M 173.0625 29.429688 C 173.84375 29.445312 174.859375 29.570312 175.828125 30 C 177.765625 30.859375 180.015625 32.433594 180.015625 40.0625 L 180.015625 71.023438 L 113.929688 120.554688 L 90.210938 101.679688 L 172.5625 29.453125 C 172.773438 29.441406 172.765625 29.421875 173.0625 29.429688 Z M 212 52 C 209.792969 52 208 53.792969 208 56 C 208 58.207031 209.792969 60 212 60 L 220 60 C 222.207031 60 224 58.207031 224 56 C 224 53.792969 222.207031 52 220 52 Z M 212 72 C 209.792969 72 208 73.792969 208 76 C 208 78.207031 209.792969 80 212 80 L 220 80 C 222.207031 80 224 78.207031 224 76 C 224 73.792969 222.207031 72 220 72 Z M 40.21875 72.109375 L 180.015625 183.382812 L 180.015625 216.054688 C 180.015625 223.683594 177.796875 225.152344 175.890625 225.960938 C 174.574219 226.519531 173.402344 226.496094 172.632812 226.429688 L 24.132812 88.328125 C 24.121094 88.320312 24.113281 88.3125 24.101562 88.304688 C 23.925781 88.144531 23.925781 88.003906 24.09375 87.835938 L 39.796875 72.132812 C 39.929688 72 40.066406 71.992188 40.21875 72.109375 Z M 180.015625 81.015625 L 180.015625 173.164062 L 120.398438 125.710938 Z M 212 92 C 209.792969 92 208 93.792969 208 96 C 208 98.207031 209.792969 100 212 100 L 220 100 C 222.207031 100 224 98.207031 224 96 C 224 93.792969 222.207031 92 220 92 Z M 212 112 C 209.792969 112 208 113.792969 208 116 C 208 118.207031 209.792969 120 212 120 L 220 120 C 222.207031 120 224 118.207031 224 116 C 224 113.792969 222.207031 112 220 112 Z M 57.539062 130.320312 L 76.898438 148.320312 L 40.226562 175.8125 C 40.222656 175.816406 40.222656 175.816406 40.21875 175.820312 C 40.070312 175.933594 39.917969 175.917969 39.789062 175.789062 L 24.101562 160.101562 C 23.929688 159.929688 23.9375 159.792969 24.117188 159.632812 Z M 212 132 C 209.792969 132 208 133.792969 208 136 C 208 138.207031 209.792969 140 212 140 L 220 140 C 222.207031 140 224 138.207031 224 136 C 224 133.792969 222.207031 132 220 132 Z M 212 152 C 209.792969 152 208 153.792969 208 156 C 208 158.207031 209.792969 160 212 160 L 220 160 C 222.207031 160 224 158.207031 224 156 C 224 153.792969 222.207031 152 220 152 Z M 212 172 C 209.792969 172 208 173.792969 208 176 C 208 178.207031 209.792969 180 212 180 L 220 180 C 222.207031 180 224 178.207031 224 176 C 224 173.792969 222.207031 172 220 172 Z M 212 192 C 209.792969 192 208 193.792969 208 196 C 208 198.207031 209.792969 200 212 200 L 220 200 C 222.207031 200 224 198.207031 224 196 C 224 193.792969 222.207031 192 220 192 Z M 212 192 "/>
</g>
</svg>
