<svg width="406" height="356" viewBox="0 0 406 356" fill="none" xmlns="http://www.w3.org/2000/svg">
<path d="M103.732 93.2791V43.3635C132.842 43.1496 155.943 40.6182 155.943 37.5519C155.943 34.4857 132.842 32.0255 103.732 31.8473V26H96.4648V31.8473C67.3143 32.0612 44.2537 34.5926 44.2537 37.6945C44.2537 40.7964 67.3143 43.3279 96.4648 43.5061V92.78L45.3905 89.2146V175.604L40.3561 175.283L39.4629 185.98L100.078 189.795V274.936L71.9832 289.198V296.971L76.4898 294.724V296.971L105.559 282.388L135.765 296.864V294.724L140.272 296.864V289.091L112.989 276.006V190.436L117.049 190.686C117.653 177.43 122.117 164.531 130.014 153.221C137.91 141.91 148.976 132.567 162.155 126.081V97.1654L103.732 93.2791ZM54.8096 174.178C54.8096 174.651 54.5957 175.104 54.215 175.439C53.8343 175.773 53.318 175.961 52.7796 175.961C52.2412 175.961 51.7249 175.773 51.3442 175.439C50.9635 175.104 50.7496 174.651 50.7496 174.178V95.7393C50.7496 95.2665 50.9635 94.813 51.3442 94.4787C51.7249 94.1444 52.2412 93.9566 52.7796 93.9566C53.318 93.9566 53.8343 94.1444 54.215 94.4787C54.5957 94.813 54.8096 95.2665 54.8096 95.7393V174.178ZM99.4692 38.6928C87.2893 38.6928 77.1394 37.9084 77.1394 36.9101C77.1394 35.9118 87.1269 35.1274 99.4692 35.1274C111.811 35.1274 121.799 35.9118 121.799 36.9101C121.799 37.9084 111.811 38.6928 99.4692 38.6928ZM312.374 189.759L363.204 186.194L362.311 175.497L357.277 175.604V89.3928L280.138 94.9549L278.838 95.7036L278.311 95.0618L249.363 97.1654V126.83C262.282 133.387 273.098 142.713 280.801 153.935C288.505 165.158 292.844 177.912 293.414 191.007L304.132 190.365V272.369L275.996 286.631V294.439L307.055 278.823L339.535 294.439V286.274L312.293 273.225L312.374 189.759ZM349.157 93.9566C349.157 93.4838 349.371 93.0303 349.752 92.696C350.132 92.3617 350.649 92.1739 351.187 92.1739C351.725 92.1739 352.242 92.3617 352.622 92.696C353.003 93.0303 353.217 93.4838 353.217 93.9566V172.395C353.217 172.868 353.003 173.322 352.622 173.656C352.242 173.99 351.725 174.178 351.187 174.178C350.649 174.178 350.132 173.99 349.752 173.656C349.371 173.322 349.157 172.868 349.157 172.395V93.9566ZM285.131 195.071C285.139 182.55 281.378 170.25 274.231 159.416C267.085 148.582 256.805 139.598 244.433 133.375C232.061 127.152 218.036 123.91 203.778 123.978C189.521 124.045 175.537 127.42 163.242 133.761C150.948 140.101 140.779 149.182 133.766 160.083C126.753 170.985 123.145 183.32 123.306 195.841C123.468 208.361 127.394 220.621 134.686 231.38C141.979 242.139 152.379 251.015 164.835 257.109V295.794H177.014V261.923C195.31 267.687 215.358 267.472 233.489 261.317V295.794H245.668V257.074H243.598C256.182 250.925 266.668 241.935 273.97 231.035C281.272 220.134 285.125 207.718 285.131 195.071ZM204.216 223.345C197.849 223.345 191.624 221.687 186.329 218.58C181.035 215.473 176.908 211.058 174.471 205.891C172.035 200.725 171.397 195.04 172.639 189.555C173.882 184.071 176.948 179.033 181.451 175.079C185.953 171.125 191.69 168.432 197.935 167.341C204.181 166.25 210.654 166.81 216.537 168.95C222.42 171.09 227.448 174.714 230.986 179.363C234.524 184.013 236.412 189.479 236.412 195.071C236.401 202.567 233.006 209.753 226.97 215.053C220.935 220.354 212.752 223.336 204.216 223.345ZM361.986 75.7374L296.702 85.0431L354.638 50.4587L350.578 45.1462L279.447 87.5388L271.571 88.6085L272.748 94.9549L277.783 94.2418L278.351 94.9905H280.178L282.289 93.707L363.204 82.1194L361.986 75.7374Z" fill="#EEEEEE"/>
<path d="M20.1562 304.936C17.3096 304.936 15 306.955 15 309.443V342.493C15 344.981 17.3096 347 20.1562 347H64.8433C67.69 347 69.9995 344.981 69.9995 342.493V309.443C69.9995 306.955 67.69 304.936 64.8433 304.936H20.1562ZM20.1562 307.941H31.5428C31.8973 307.941 32.1873 308.194 32.1873 308.504V310.382C32.1873 310.692 31.8973 310.945 31.5428 310.945H19.082C18.7275 310.945 18.4375 310.692 18.4375 310.382V309.443C18.4375 308.617 19.2109 307.941 20.1562 307.941ZM65.9175 316.954H19.082C18.7275 316.954 18.4375 316.701 18.4375 316.391V313.011C18.4375 312.701 18.7275 312.448 19.082 312.448H33.9061L37.1502 308.194C37.2684 308.035 37.4725 307.941 37.6873 307.941H64.8433C65.7886 307.941 66.562 308.617 66.562 309.443V316.391C66.562 316.701 66.272 316.954 65.9175 316.954ZM42.4998 341.742C35.3885 341.742 29.6092 336.691 29.6092 330.475C29.6092 324.259 35.3885 319.208 42.4998 319.208C49.611 319.208 55.3903 324.259 55.3903 330.475C55.3903 336.691 49.611 341.742 42.4998 341.742ZM42.4998 322.212C37.2898 322.212 33.0467 325.921 33.0467 330.475C33.0467 335.029 37.2898 338.737 42.4998 338.737C47.7097 338.737 51.9528 335.029 51.9528 330.475C51.9528 325.921 47.7097 322.212 42.4998 322.212ZM37.3436 331.977C36.3983 331.977 35.6248 331.301 35.6248 330.475C35.6248 327.161 38.7078 324.466 42.4998 324.466C43.4451 324.466 44.2185 325.142 44.2185 325.968C44.2185 326.794 43.4451 327.47 42.4998 327.47C40.6092 327.47 39.0623 328.822 39.0623 330.475C39.0623 331.301 38.2889 331.977 37.3436 331.977Z" fill="#EEEEEE"/>
<path d="M40.9998 336.985C44.8657 336.985 47.9997 333.846 47.9997 329.974C47.9997 326.102 44.8657 322.964 40.9998 322.964C37.1338 322.964 33.9998 326.102 33.9998 329.974C33.9998 333.846 37.1338 336.985 40.9998 336.985Z" fill="#EEEEEE"/>
<path d="M116.822 173.737H49.1772C49.1301 173.737 49.085 174.634 49.0517 176.23C49.0184 177.827 48.9997 179.993 48.9997 182.25C48.9997 184.508 49.0184 186.673 49.0517 188.27C49.085 189.866 49.1301 190.763 49.1772 190.763H116.822C116.869 190.763 116.914 189.866 116.947 188.27C116.98 186.673 116.999 184.508 116.999 182.25C116.999 179.993 116.98 177.827 116.947 176.23C116.914 174.634 116.869 173.737 116.822 173.737Z" fill="#EEEEEE"/>
<path d="M91.9022 183.034L39.1825 182.468C39.1458 182.468 39.1061 182.89 39.0721 183.64C39.0381 184.391 39.0126 185.41 39.0013 186.473C38.9899 187.535 38.9936 188.554 39.0115 189.306C39.0294 190.057 39.0601 190.48 39.0968 190.48L91.8165 191.046C91.8532 191.046 91.8929 190.625 91.9269 189.874C91.9609 189.123 91.9864 188.104 91.9978 187.042C92.0091 185.979 92.0055 184.96 91.9875 184.208C91.9696 183.457 91.9389 183.035 91.9022 183.034Z" fill="#EEEEEE"/>
<path d="M108.877 179.902L39.9128 175.236C39.8648 175.233 39.7772 175.845 39.6694 176.939C39.5615 178.033 39.4421 179.519 39.3375 181.069C39.233 182.62 39.1518 184.108 39.1118 185.206C39.0718 186.305 39.0763 186.924 39.1243 186.927L108.089 191.593C108.137 191.596 108.224 190.983 108.332 189.889C108.44 188.795 108.559 187.31 108.664 185.76C108.769 184.209 108.85 182.721 108.89 181.622C108.93 180.524 108.925 179.905 108.877 179.902Z" fill="#EEEEEE"/>
<path d="M110.811 180.748H39.1877C39.1379 180.748 39.0901 181.328 39.0548 182.361C39.0196 183.394 38.9997 184.796 38.9997 186.256C38.9997 187.717 39.0196 189.118 39.0548 190.151C39.0901 191.184 39.1379 191.765 39.1877 191.765H110.811C110.861 191.765 110.909 191.184 110.944 190.151C110.979 189.118 110.999 187.717 110.999 186.256C110.999 184.796 110.979 183.394 110.944 182.361C110.909 181.328 110.861 180.748 110.811 180.748Z" fill="#EEEEEE"/>
<path d="M110.811 173.737H39.1877C39.1379 173.737 39.0901 174.318 39.0548 175.351C39.0196 176.384 38.9997 177.785 38.9997 179.246C38.9997 180.707 39.0196 182.108 39.0548 183.141C39.0901 184.174 39.1379 184.754 39.1877 184.754H110.811C110.861 184.754 110.909 184.174 110.944 183.141C110.979 182.108 110.999 180.707 110.999 179.246C110.999 177.785 110.979 176.384 110.944 175.351C110.909 174.318 110.861 173.737 110.811 173.737Z" fill="#EEEEEE"/>
<path d="M356.83 94.6176H293.165C293.12 94.6176 293.078 99.7329 293.047 108.842C293.015 117.952 292.998 130.309 292.998 143.191C292.998 156.074 293.015 168.428 293.047 177.537C293.078 186.647 293.12 191.765 293.165 191.765H356.83C356.874 191.765 356.917 186.647 356.948 177.537C356.979 168.428 356.997 156.074 356.997 143.191C356.997 130.309 356.979 117.952 356.948 108.842C356.917 99.7329 356.874 94.6176 356.83 94.6176Z" fill="#EEEEEE"/>
<path d="M355.963 90.6115H343.031C343.022 90.6115 343.013 93.7756 343.007 99.4102C343.001 105.045 342.997 112.688 342.997 120.657C342.997 128.626 343.001 136.267 343.007 141.902C343.013 147.537 343.022 150.703 343.031 150.703H355.963C355.972 150.703 355.981 147.537 355.987 141.902C355.993 136.267 355.997 128.626 355.997 120.657C355.997 112.688 355.993 105.045 355.987 99.4102C355.981 93.7756 355.972 90.6115 355.963 90.6115Z" fill="#EEEEEE"/>
<path d="M362.893 175.74H323.102C323.074 175.74 323.047 176.584 323.028 178.087C323.008 179.589 322.997 181.628 322.997 183.753C322.997 185.878 323.008 187.915 323.028 189.418C323.047 190.921 323.074 191.765 323.102 191.765H362.893C362.92 191.765 362.947 190.921 362.966 189.418C362.986 187.915 362.997 185.878 362.997 183.753C362.997 181.628 362.986 179.589 362.966 178.087C362.947 176.584 362.92 175.74 362.893 175.74Z" fill="#EEEEEE"/>
<path d="M363.874 187.759H317.12C317.088 187.759 317.056 187.97 317.033 188.345C317.01 188.721 316.997 189.23 316.997 189.762C316.997 190.293 317.01 190.802 317.033 191.178C317.056 191.554 317.088 191.765 317.12 191.765H363.874C363.907 191.765 363.938 191.554 363.961 191.178C363.984 190.802 363.997 190.293 363.997 189.762C363.997 189.23 363.984 188.721 363.961 188.345C363.938 187.97 363.907 187.759 363.874 187.759Z" fill="#EEEEEE"/>
<path d="M363.808 184.092L317.073 185.417C317.04 185.418 317.015 185.63 317.003 186.006C316.99 186.382 316.992 186.892 317.007 187.423C317.022 187.954 317.049 188.463 317.083 188.838C317.116 189.213 317.154 189.423 317.186 189.422L363.922 188.097C363.954 188.096 363.979 187.884 363.992 187.508C364.004 187.132 364.003 186.622 363.988 186.091C363.973 185.56 363.945 185.051 363.912 184.676C363.878 184.301 363.841 184.091 363.808 184.092Z" fill="#EEEEEE"/>
<path d="M363.976 174.781L353.063 174.739C353.055 174.739 353.046 175.253 353.037 176.168C353.028 177.083 353.02 178.325 353.016 179.619C353.011 180.913 353.009 182.155 353.011 183.07C353.013 183.985 353.018 184.499 353.026 184.499L363.939 184.541C363.947 184.541 363.956 184.027 363.965 183.112C363.973 182.196 363.981 180.955 363.986 179.661C363.991 178.367 363.993 177.125 363.991 176.21C363.989 175.295 363.984 174.781 363.976 174.781Z" fill="#EEEEEE"/>
<path d="M363.976 181.791L353.063 181.75C353.055 181.75 353.046 182.264 353.037 183.179C353.028 184.094 353.02 185.335 353.016 186.63C353.011 187.924 353.009 189.165 353.011 190.08C353.013 190.996 353.018 191.51 353.026 191.51L363.939 191.551C363.947 191.552 363.956 191.037 363.965 190.122C363.973 189.207 363.981 187.966 363.986 186.671C363.991 185.377 363.993 184.136 363.991 183.22C363.989 182.305 363.984 181.791 363.976 181.791Z" fill="#EEEEEE"/>
<path d="M123.627 34.7155L74.1512 34.527C74.1168 34.5269 74.0826 34.8299 74.0562 35.3698C74.0298 35.9096 74.0133 36.6419 74.0104 37.4055C74.0075 38.169 74.0184 38.9013 74.0407 39.4413C74.063 39.9813 74.0949 40.2848 74.1293 40.2849L123.605 40.4734C123.639 40.4735 123.674 40.1703 123.7 39.6305C123.726 39.0907 123.743 38.3585 123.746 37.5949C123.749 36.8314 123.738 36.0989 123.716 35.5589C123.693 35.019 123.661 34.7156 123.627 34.7155Z" fill="#EEEEEE"/>
<path d="M283.979 288L276.047 287.97C276.042 287.97 276.035 288.338 276.029 288.994C276.022 289.65 276.017 290.54 276.013 291.468C276.01 292.395 276.009 293.285 276.01 293.941C276.011 294.597 276.015 294.966 276.021 294.966L283.953 294.996C283.958 294.996 283.965 294.628 283.971 293.972C283.978 293.316 283.983 292.426 283.987 291.498C283.99 290.57 283.991 289.68 283.99 289.024C283.989 288.368 283.985 288 283.979 288Z" fill="#EEEEEE"/>
<path d="M241.084 155.274L169.215 155.001C169.165 155.001 169.103 158.777 169.042 165.502C168.981 172.228 168.926 181.351 168.89 190.863C168.854 200.374 168.839 209.495 168.849 216.221C168.859 222.947 168.892 226.726 168.942 226.726L240.811 226.999C240.861 226.999 240.924 223.221 240.985 216.495C241.046 209.77 241.1 200.649 241.136 191.137C241.173 181.626 241.187 172.503 241.178 165.777C241.168 159.051 241.134 155.274 241.084 155.274Z" fill="#EEEEEE"/>
<path d="M339.979 286L332.055 285.97C332.05 285.97 332.043 286.445 332.035 287.291C332.028 288.138 332.022 289.286 332.017 290.483C332.013 291.68 332.01 292.828 332.011 293.674C332.012 294.521 332.015 294.996 332.021 294.996L339.945 295.026C339.95 295.026 339.957 294.551 339.965 293.704C339.972 292.858 339.978 291.71 339.983 290.513C339.987 289.316 339.99 288.168 339.989 287.322C339.988 286.475 339.985 286 339.979 286Z" fill="#EEEEEE"/>
<path d="M355.537 50.1031L277.182 96.9334C277.128 96.966 276.891 96.6891 276.525 96.1633C276.158 95.6375 275.691 94.906 275.228 94.1299C274.764 93.3538 274.34 92.5965 274.051 92.0247C273.762 91.4528 273.63 91.1132 273.684 91.0806L352.039 44.2503C352.094 44.2177 352.33 44.4948 352.697 45.0206C353.063 45.5463 353.53 46.2777 353.994 47.0538C354.458 47.8299 354.881 48.5874 355.17 49.1592C355.46 49.7311 355.592 50.0705 355.537 50.1031Z" fill="#B5C6FD"/>
<path d="M362.778 82.1165L272.111 95.1274C272.048 95.1365 271.934 94.7723 271.794 94.1146C271.654 93.4569 271.5 92.5596 271.365 91.6204C271.23 90.6813 271.126 89.777 271.075 89.1065C271.025 88.436 271.032 88.0542 271.095 88.0451L361.762 75.0342C361.825 75.0251 361.939 75.3896 362.079 76.0472C362.219 76.7049 362.373 77.602 362.508 78.5412C362.643 79.4803 362.747 80.3848 362.798 81.0553C362.848 81.7258 362.841 82.1074 362.778 82.1165Z" fill="#B5C6FD"/>
<path d="M100 44C130.928 44 156 41.0898 156 37.5C156 33.9101 130.928 31 100 31C69.072 31 44 33.9101 44 37.5C44 41.0898 69.072 44 100 44Z" fill="#B5C6FD"/>
<path d="M42.5 339C47.7467 339 52 335.194 52 330.5C52 325.806 47.7467 322 42.5 322C37.2533 322 33 325.806 33 330.5C33 335.194 37.2533 339 42.5 339Z" fill="#B5C6FD"/>
</svg>
