<svg width="941" height="492" viewBox="0 0 941 492" fill="none" xmlns="http://www.w3.org/2000/svg">
<path d="M635.854 222H580.146C580.107 222 580.07 226.318 580.043 234.007C580.015 241.696 580 252.126 580 263C580 273.874 580.015 284.302 580.043 291.991C580.07 299.68 580.107 304 580.146 304H635.854C635.893 304 635.93 299.68 635.957 291.991C635.985 284.302 636 273.874 636 263C636 252.126 635.985 241.696 635.957 234.007C635.93 226.318 635.893 222 635.854 222Z" fill="#EEEEEE"/>
<path d="M696.695 210H580.305C580.224 210 580.147 211.685 580.089 214.686C580.032 217.686 580 221.757 580 226C580 230.243 580.032 234.313 580.089 237.313C580.147 240.314 580.224 242 580.305 242H696.695C696.776 242 696.853 240.314 696.911 237.313C696.968 234.313 697 230.243 697 226C697 221.757 696.968 217.686 696.911 214.686C696.853 211.685 696.776 210 696.695 210Z" fill="#EEEEEE"/>
<g clip-path="url(#clip0)">
<path d="M701.038 418.639H128.503C128.104 418.639 127.722 418.486 127.44 418.213C127.158 417.941 127 417.571 127 417.186C127 416.801 127.158 416.431 127.44 416.159C127.722 415.886 128.104 415.733 128.503 415.733H701.038C701.437 415.733 701.819 415.886 702.101 416.159C702.382 416.431 702.541 416.801 702.541 417.186C702.541 417.571 702.382 417.941 702.101 418.213C701.819 418.486 701.437 418.639 701.038 418.639Z" fill="#DEDEDE"/>
<path d="M387.579 440.903L386.504 423.124L456.931 410.653L458.517 436.895L387.579 440.903Z" fill="#D99D9D"/>
<path d="M390.99 410.127L393.064 444.416L370.731 445.678L367.352 389.8C370.285 389.634 373.223 390.028 375.998 390.96C378.773 391.892 381.331 393.343 383.526 395.231C385.721 397.118 387.51 399.405 388.791 401.961C390.072 404.517 390.819 407.292 390.99 410.127Z" fill="#7D7D7D"/>
<path d="M418.21 440.74L406.511 454.499L346.048 417.427L363.313 397.121L418.21 440.74Z" fill="#D99D9D"/>
<path d="M394.089 461.095L416.65 434.561L433.932 448.293L397.167 491.534C394.897 489.731 393.017 487.513 391.634 485.008C390.251 482.502 389.393 479.757 389.107 476.931C388.821 474.104 389.114 471.251 389.969 468.534C390.824 465.817 392.224 463.289 394.089 461.095V461.095Z" fill="#7D7D7D"/>
<path d="M384.546 376.757L376.552 413.189C376.368 414.028 376.378 414.896 376.582 415.73C376.786 416.565 377.178 417.346 377.731 418.016C378.284 418.687 378.983 419.231 379.779 419.609C380.575 419.988 381.448 420.191 382.335 420.205L460.924 421.43C461.81 421.444 462.688 421.269 463.495 420.916C464.302 420.563 465.019 420.043 465.594 419.391C466.169 418.739 466.588 417.973 466.82 417.146C467.053 416.32 467.094 415.454 466.94 414.611L460.066 376.953C459.82 375.608 459.092 374.389 458.01 373.511C456.927 372.633 455.559 372.152 454.146 372.152H390.426C389.048 372.152 387.712 372.61 386.642 373.448C385.572 374.286 384.832 375.454 384.546 376.757V376.757Z" fill="#7D7D7D"/>
<path d="M397.578 389.585C397.578 389.585 320.939 343.098 305.912 367.794C298.398 380.142 302.155 392.127 307.79 401.025C313.02 409.126 320.527 415.621 329.433 419.752L391.567 449.145L414.108 425.902L399.081 412.828L397.578 389.585Z" fill="#7D7D7D"/>
<path d="M436.649 382.321C436.649 382.321 535.828 354.719 516.293 407.017C496.757 459.314 423.124 438.976 423.124 438.976L415.611 417.186L441.157 399.753L436.649 382.321Z" fill="#7D7D7D"/>
<path d="M423.5 239C445.868 239 464 220.196 464 197C464 173.804 445.868 155 423.5 155C401.132 155 383 173.804 383 197C383 220.196 401.132 239 423.5 239Z" fill="#D99D9D"/>
<path d="M423.638 238.748C444.022 238.748 460.547 222.773 460.547 203.068C460.547 183.362 444.022 167.388 423.638 167.388C403.254 167.388 386.73 183.362 386.73 203.068C386.73 222.773 403.254 238.748 423.638 238.748Z" fill="#D99D9D"/>
<path d="M428.572 388.086C413.236 387.862 397.978 385.919 383.104 382.295L382.665 382.179L362.069 290.594C360.216 282.546 361.476 274.12 365.611 266.909C369.745 259.698 376.468 254.2 384.509 251.453C409.349 242.837 436.422 242.315 461.598 249.965H461.598C470.046 252.596 477.156 258.21 481.511 265.686C485.866 273.162 487.145 281.951 485.093 290.298L462.089 382.102L461.765 382.251C452.205 386.629 440.251 388.086 428.572 388.086Z" fill="#A9A9A9"/>
<path d="M400.907 395.201C401.655 393.191 402.849 391.365 404.407 389.85C405.964 388.335 407.845 387.169 409.919 386.433C411.993 385.697 414.209 385.41 416.41 385.592C418.611 385.773 420.744 386.419 422.659 387.484L463.212 353.455L466.881 380.197L427.809 408.412C425.745 411.403 422.619 413.559 419.021 414.47C415.423 415.382 411.604 414.986 408.288 413.358C404.972 411.729 402.389 408.982 401.029 405.635C399.668 402.289 399.625 398.576 400.907 395.201V395.201Z" fill="#D99D9D"/>
<path d="M439.583 402.623C438.924 402.623 438.267 402.53 437.635 402.347C436.609 402.058 435.67 401.536 434.895 400.824C434.121 400.112 433.534 399.231 433.184 398.255L428.289 384.849C427.831 383.61 427.772 382.266 428.122 380.994C428.471 379.722 429.212 378.583 430.246 377.727L485.499 345.66L463.718 251.727L464.272 251.598C464.498 251.544 486.813 246.634 495.958 270.207C502.362 286.718 526.06 322.617 524.388 346.876C524.07 351.728 522.07 356.336 518.711 359.954C515.351 363.572 510.828 365.99 505.872 366.818L443.677 401.266C442.505 402.144 441.066 402.621 439.583 402.623Z" fill="#A9A9A9"/>
<path d="M445.781 392.014C445.033 390.005 443.838 388.178 442.281 386.664C440.724 385.149 438.842 383.982 436.768 383.247C434.694 382.511 432.479 382.224 430.277 382.405C428.076 382.587 425.943 383.233 424.028 384.297L383.475 350.268L379.806 377.011L418.878 405.225C420.942 408.216 424.069 410.372 427.667 411.284C431.264 412.195 435.083 411.799 438.399 410.171C441.715 408.543 444.298 405.795 445.659 402.449C447.019 399.102 447.062 395.39 445.781 392.014V392.014Z" fill="#D99D9D"/>
<path d="M411.173 402.623C409.69 402.621 408.251 402.144 407.08 401.266L340.377 369.723C335.42 368.896 330.897 366.478 327.538 362.859C324.178 359.241 322.178 354.634 321.86 349.781C320.188 325.522 348.394 286.718 354.798 270.208C363.942 246.634 386.258 251.542 386.484 251.598L387.038 251.727L360.749 348.565L420.51 377.727C421.544 378.583 422.285 379.722 422.634 380.994C422.984 382.266 422.926 383.61 422.467 384.849L417.572 398.255C417.222 399.231 416.636 400.112 415.861 400.824C415.087 401.536 414.147 402.058 413.121 402.347C412.489 402.53 411.833 402.623 411.173 402.623V402.623Z" fill="#A9A9A9"/>
<path d="M490.746 417.186H357.005C354.216 417.183 351.542 416.11 349.57 414.204C347.598 412.297 346.489 409.713 346.486 407.017V335.834C346.489 333.138 347.598 330.554 349.57 328.647C351.542 326.741 354.216 325.669 357.005 325.665H490.746C493.535 325.669 496.209 326.741 498.181 328.647C500.153 330.554 501.262 333.138 501.265 335.834V407.017C501.262 409.713 500.153 412.297 498.181 414.204C496.209 416.11 493.535 417.183 490.746 417.186V417.186Z" fill="#B5C6FD"/>
<path d="M423.875 380.142C428.855 380.142 432.892 376.24 432.892 371.426C432.892 366.612 428.855 362.709 423.875 362.709C418.896 362.709 414.859 366.612 414.859 371.426C414.859 376.24 418.896 380.142 423.875 380.142Z" fill="white"/>
<path d="M176.082 401.669C177.939 382.34 183.067 363.437 191.261 345.715C193.544 340.783 196.058 335.959 198.802 331.245C198.939 330.998 198.972 330.709 198.894 330.44C198.816 330.17 198.632 329.94 198.382 329.799C198.132 329.657 197.834 329.615 197.553 329.682C197.271 329.748 197.027 329.918 196.873 330.155C186.896 347.327 179.906 365.968 176.184 385.332C175.148 390.739 174.37 396.185 173.849 401.669C173.716 403.052 175.951 403.043 176.082 401.669V401.669Z" fill="#E6E6E6"/>
<path d="M204.212 334.708C212.025 334.708 218.359 328.585 218.359 321.031C218.359 313.478 212.025 307.355 204.212 307.355C196.398 307.355 190.065 313.478 190.065 321.031C190.065 328.585 196.398 334.708 204.212 334.708Z" fill="#B5C6FD"/>
<path d="M177.53 402.032C178.734 389.492 182.061 377.229 187.376 365.732C188.858 362.532 190.489 359.403 192.268 356.344C192.358 356.185 192.379 355.997 192.328 355.822C192.278 355.647 192.158 355.498 191.996 355.407C191.834 355.315 191.641 355.288 191.458 355.331C191.276 355.374 191.118 355.484 191.017 355.637C184.545 366.778 180.01 378.871 177.595 391.433C176.923 394.941 176.418 398.474 176.08 402.032C175.995 402.929 177.444 402.924 177.53 402.032H177.53Z" fill="#E6E6E6"/>
<path d="M195.778 358.591C200.847 358.591 204.956 354.619 204.956 349.719C204.956 344.819 200.847 340.846 195.778 340.846C190.71 340.846 186.6 344.819 186.6 349.719C186.6 354.619 190.71 358.591 195.778 358.591Z" fill="#B5C6FD"/>
<path d="M175.701 401.195C168.672 390.591 163.493 378.944 160.369 366.718C159.502 363.314 158.797 359.877 158.254 356.407C158.223 356.228 158.12 356.068 157.969 355.96C157.818 355.852 157.629 355.805 157.442 355.829C157.256 355.854 157.087 355.947 156.97 356.089C156.854 356.232 156.799 356.413 156.817 356.594C158.802 369.226 162.921 381.458 169.009 392.799C170.711 395.964 172.561 399.05 174.558 402.056C175.061 402.815 176.201 401.948 175.701 401.195V401.195Z" fill="#E6E6E6"/>
<path d="M156.806 357.969C161.875 357.969 165.984 353.996 165.984 349.096C165.984 344.196 161.875 340.224 156.806 340.224C151.737 340.224 147.628 344.196 147.628 349.096C147.628 353.996 151.737 357.969 156.806 357.969Z" fill="#B5C6FD"/>
<path d="M147.525 409.044V391.612C147.527 389.879 148.24 388.217 149.508 386.992C150.776 385.766 152.494 385.077 154.287 385.075H196.363C198.156 385.077 199.875 385.766 201.143 386.992C202.41 388.217 203.123 389.879 203.126 391.612V409.044C203.123 410.777 202.41 412.439 201.143 413.665C199.875 414.89 198.156 415.58 196.363 415.581H154.287C152.494 415.58 150.776 414.89 149.508 413.665C148.24 412.439 147.527 410.777 147.525 409.044V409.044Z" fill="#828181"/>
</g>
<g clip-path="url(#clip1)">
<path d="M87.5001 6.15625C89.7206 6.15508 91.9017 5.56684 93.8244 4.45059C95.7471 3.33435 97.3438 1.72939 98.454 -0.203125H76.5461C77.6563 1.72939 79.253 3.33435 81.1757 4.45059C83.0984 5.56684 85.2796 6.15508 87.5001 6.15625Z" fill="#B5C6FD"/>
<path d="M144.453 222.375H30.5469V285.969C30.5469 301.148 36.5473 315.706 47.2281 326.44C57.9088 337.173 72.3951 343.203 87.5 343.203C102.605 343.203 117.091 337.173 127.772 326.44C138.453 315.706 144.453 301.148 144.453 285.969V222.375Z" fill="#CCCCCC"/>
<path d="M144.453 165.141H30.5469V209.656H144.453V165.141Z" fill="#CCCCCC"/>
<path d="M144.453 101.547H30.5469V152.422H144.453V101.547Z" fill="#CCCCCC"/>
<path d="M99.4159 8.17847C96.0715 10.9814 91.8548 12.5165 87.5 12.5165C83.1453 12.5165 78.9285 10.9814 75.5842 8.17847L40.7795 69.2603L51.9676 75.1999L81.1719 19.6889V44.3124H93.8282V19.6889L123.039 75.1999L134.227 69.2603L99.4159 8.17847Z" fill="#B5C6FD"/>
<path d="M31.0024 88.8281H81.1718V50.6719H74.8437C65.9579 50.6459 57.2748 53.3387 49.9488 58.3922C44.8657 61.8704 40.557 66.3717 37.2956 71.6109C34.0341 76.8502 31.8912 82.7131 31.0024 88.8281ZM125.07 58.4049C117.74 53.3443 109.05 50.647 100.156 50.6719H93.8281V88.8281H143.997C143.112 82.7162 140.972 76.8558 137.713 71.6187C134.455 66.3816 130.15 61.8819 125.07 58.4049V58.4049Z" fill="#CCCCCC"/>
</g>
<path d="M638.732 214.279V164.364C667.842 164.15 690.943 161.618 690.943 158.552C690.943 155.486 667.842 153.026 638.732 152.847V147H631.465V152.847C602.314 153.061 579.254 155.593 579.254 158.695C579.254 161.796 602.314 164.328 631.465 164.506V213.78L580.39 210.215V296.604L575.356 296.283L574.463 306.98L635.078 310.795V395.936L606.983 410.198V417.971L611.49 415.724V417.971L640.559 403.388L670.765 417.864V415.724L675.272 417.864V410.091L647.989 397.006V311.436L652.049 311.686C652.653 298.43 657.117 285.531 665.014 274.221C672.91 262.91 683.976 253.567 697.155 247.081V218.165L638.732 214.279ZM589.81 295.178C589.81 295.651 589.596 296.104 589.215 296.439C588.834 296.773 588.318 296.961 587.78 296.961C587.241 296.961 586.725 296.773 586.344 296.439C585.963 296.104 585.75 295.651 585.75 295.178V216.739C585.75 216.266 585.963 215.813 586.344 215.479C586.725 215.144 587.241 214.957 587.78 214.957C588.318 214.957 588.834 215.144 589.215 215.479C589.596 215.813 589.81 216.266 589.81 216.739V295.178ZM634.469 159.693C622.289 159.693 612.139 158.908 612.139 157.91C612.139 156.912 622.127 156.127 634.469 156.127C646.811 156.127 656.799 156.912 656.799 157.91C656.799 158.908 646.811 159.693 634.469 159.693ZM847.374 310.759L898.204 307.194L897.311 296.497L892.277 296.604V210.393L815.138 215.955L813.838 216.704L813.311 216.062L784.363 218.165V247.83C797.282 254.387 808.098 263.713 815.801 274.935C823.505 286.158 827.844 298.912 828.414 312.007L839.132 311.365V393.369L810.996 407.631V415.439L842.055 399.823L874.535 415.439V407.274L847.293 394.225L847.374 310.759ZM884.157 214.957C884.157 214.484 884.371 214.03 884.752 213.696C885.132 213.362 885.649 213.174 886.187 213.174C886.725 213.174 887.242 213.362 887.622 213.696C888.003 214.03 888.217 214.484 888.217 214.957V293.395C888.217 293.868 888.003 294.322 887.622 294.656C887.242 294.99 886.725 295.178 886.187 295.178C885.649 295.178 885.132 294.99 884.752 294.656C884.371 294.322 884.157 293.868 884.157 293.395V214.957ZM820.131 316.071C820.139 303.55 816.378 291.25 809.231 280.416C802.085 269.582 791.805 260.598 779.433 254.375C767.061 248.152 753.036 244.91 738.778 244.978C724.521 245.045 710.537 248.42 698.242 254.761C685.948 261.101 675.779 270.182 668.766 281.083C661.753 291.985 658.145 304.32 658.306 316.841C658.468 329.361 662.394 341.621 669.686 352.38C676.979 363.139 687.379 372.015 699.835 378.109V416.794H712.014V382.923C730.31 388.687 750.358 388.472 768.489 382.317V416.794H780.668V378.074H778.598C791.182 371.925 801.668 362.935 808.97 352.035C816.272 341.134 820.125 328.718 820.131 316.071ZM739.216 344.345C732.849 344.345 726.624 342.687 721.329 339.58C716.035 336.473 711.908 332.058 709.471 326.891C707.035 321.725 706.397 316.04 707.639 310.555C708.882 305.071 711.948 300.033 716.451 296.079C720.953 292.125 726.69 289.432 732.935 288.341C739.181 287.25 745.654 287.81 751.537 289.95C757.42 292.09 762.448 295.714 765.986 300.363C769.524 305.013 771.412 310.479 771.412 316.071C771.401 323.567 768.006 330.753 761.97 336.053C755.935 341.354 747.752 344.336 739.216 344.345ZM896.986 196.737L831.702 206.043L889.638 171.459L885.578 166.146L814.447 208.539L806.571 209.608L807.748 215.955L812.783 215.242L813.351 215.991H815.178L817.289 214.707L898.204 203.119L896.986 196.737Z" fill="#EEEEEE"/>
<path d="M555.156 425.936C552.31 425.936 550 427.955 550 430.443V463.493C550 465.981 552.31 468 555.156 468H599.843C602.69 468 605 465.981 605 463.493V430.443C605 427.955 602.69 425.936 599.843 425.936H555.156ZM555.156 428.941H566.543C566.897 428.941 567.187 429.194 567.187 429.504V431.382C567.187 431.692 566.897 431.945 566.543 431.945H554.082C553.728 431.945 553.437 431.692 553.437 431.382V430.443C553.437 429.617 554.211 428.941 555.156 428.941ZM600.918 437.954H554.082C553.728 437.954 553.437 437.701 553.437 437.391V434.011C553.437 433.701 553.728 433.448 554.082 433.448H568.906L572.15 429.194C572.268 429.035 572.472 428.941 572.687 428.941H599.843C600.789 428.941 601.562 429.617 601.562 430.443V437.391C601.562 437.701 601.272 437.954 600.918 437.954ZM577.5 462.742C570.388 462.742 564.609 457.691 564.609 451.475C564.609 445.259 570.388 440.208 577.5 440.208C584.611 440.208 590.39 445.259 590.39 451.475C590.39 457.691 584.611 462.742 577.5 462.742ZM577.5 443.212C572.29 443.212 568.047 446.921 568.047 451.475C568.047 456.029 572.29 459.737 577.5 459.737C582.71 459.737 586.953 456.029 586.953 451.475C586.953 446.921 582.71 443.212 577.5 443.212ZM572.344 452.977C571.398 452.977 570.625 452.301 570.625 451.475C570.625 448.161 573.708 445.466 577.5 445.466C578.445 445.466 579.218 446.142 579.218 446.968C579.218 447.794 578.445 448.47 577.5 448.47C575.609 448.47 574.062 449.822 574.062 451.475C574.062 452.301 573.289 452.977 572.344 452.977Z" fill="#EEEEEE"/>
<path d="M576 457.985C579.866 457.985 583 454.846 583 450.974C583 447.102 579.866 443.964 576 443.964C572.134 443.964 569 447.102 569 450.974C569 454.846 572.134 457.985 576 457.985Z" fill="#EEEEEE"/>
<path d="M651.822 294.737H584.177C584.13 294.737 584.085 295.634 584.052 297.23C584.018 298.827 584 300.993 584 303.25C584 305.508 584.018 307.673 584.052 309.27C584.085 310.866 584.13 311.763 584.177 311.763H651.822C651.869 311.763 651.914 310.866 651.947 309.27C651.98 307.673 651.999 305.508 651.999 303.25C651.999 300.993 651.98 298.827 651.947 297.23C651.914 295.634 651.869 294.737 651.822 294.737Z" fill="#EEEEEE"/>
<path d="M626.902 304.034L574.183 303.468C574.146 303.468 574.106 303.89 574.072 304.64C574.038 305.391 574.013 306.41 574.001 307.473C573.99 308.535 573.994 309.554 574.011 310.306C574.029 311.057 574.06 311.48 574.097 311.48L626.817 312.046C626.853 312.046 626.893 311.625 626.927 310.874C626.961 310.123 626.986 309.104 626.998 308.042C627.009 306.979 627.005 305.96 626.988 305.208C626.97 304.457 626.939 304.035 626.902 304.034Z" fill="#EEEEEE"/>
<path d="M643.877 300.902L574.913 296.236C574.865 296.233 574.777 296.845 574.669 297.939C574.561 299.033 574.442 300.519 574.338 302.069C574.233 303.62 574.152 305.108 574.112 306.206C574.072 307.305 574.076 307.924 574.124 307.927L643.089 312.593C643.137 312.596 643.224 311.983 643.332 310.889C643.44 309.795 643.559 308.31 643.664 306.76C643.769 305.209 643.85 303.721 643.89 302.622C643.93 301.524 643.925 300.905 643.877 300.902Z" fill="#EEEEEE"/>
<path d="M645.811 301.748H574.188C574.138 301.748 574.09 302.328 574.055 303.361C574.02 304.394 574 305.796 574 307.256C574 308.717 574.02 310.118 574.055 311.151C574.09 312.184 574.138 312.765 574.188 312.765H645.811C645.861 312.765 645.909 312.184 645.944 311.151C645.979 310.118 645.999 308.717 645.999 307.256C645.999 305.796 645.979 304.394 645.944 303.361C645.909 302.328 645.861 301.748 645.811 301.748Z" fill="#EEEEEE"/>
<path d="M645.811 294.737H574.188C574.138 294.737 574.09 295.318 574.055 296.351C574.02 297.384 574 298.785 574 300.246C574 301.707 574.02 303.108 574.055 304.141C574.09 305.174 574.138 305.754 574.188 305.754H645.811C645.861 305.754 645.909 305.174 645.944 304.141C645.979 303.108 645.999 301.707 645.999 300.246C645.999 298.785 645.979 297.384 645.944 296.351C645.909 295.318 645.861 294.737 645.811 294.737Z" fill="#EEEEEE"/>
<path d="M891.83 215.618H828.165C828.12 215.618 828.078 220.733 828.047 229.842C828.015 238.952 827.998 251.309 827.998 264.191C827.998 277.074 828.015 289.428 828.047 298.537C828.078 307.647 828.12 312.765 828.165 312.765H891.83C891.874 312.765 891.917 307.647 891.948 298.537C891.979 289.428 891.997 277.074 891.997 264.191C891.997 251.309 891.979 238.952 891.948 229.842C891.917 220.733 891.874 215.618 891.83 215.618Z" fill="#EEEEEE"/>
<path d="M890.963 211.612H878.031C878.022 211.612 878.013 214.776 878.007 220.41C878.001 226.045 877.997 233.688 877.997 241.657C877.997 249.626 878.001 257.267 878.007 262.902C878.013 268.537 878.022 271.703 878.031 271.703H890.963C890.972 271.703 890.981 268.537 890.987 262.902C890.993 257.267 890.997 249.626 890.997 241.657C890.997 233.688 890.993 226.045 890.987 220.41C890.981 214.776 890.972 211.612 890.963 211.612Z" fill="#EEEEEE"/>
<path d="M897.893 296.74H858.102C858.074 296.74 858.047 297.584 858.028 299.087C858.008 300.589 857.997 302.628 857.997 304.753C857.997 306.878 858.008 308.915 858.028 310.418C858.047 311.921 858.074 312.765 858.102 312.765H897.893C897.92 312.765 897.947 311.921 897.966 310.418C897.986 308.915 897.997 306.878 897.997 304.753C897.997 302.628 897.986 300.589 897.966 299.087C897.947 297.584 897.92 296.74 897.893 296.74Z" fill="#EEEEEE"/>
<path d="M898.874 308.759H852.12C852.088 308.759 852.056 308.97 852.033 309.345C852.01 309.721 851.997 310.23 851.997 310.762C851.997 311.293 852.01 311.802 852.033 312.178C852.056 312.554 852.088 312.765 852.12 312.765H898.874C898.907 312.765 898.938 312.554 898.961 312.178C898.984 311.802 898.997 311.293 898.997 310.762C898.997 310.23 898.984 309.721 898.961 309.345C898.938 308.97 898.907 308.759 898.874 308.759Z" fill="#EEEEEE"/>
<path d="M898.808 305.092L852.073 306.417C852.04 306.418 852.015 306.63 852.003 307.006C851.99 307.382 851.992 307.892 852.007 308.423C852.022 308.954 852.049 309.463 852.083 309.838C852.116 310.213 852.154 310.423 852.186 310.422L898.922 309.097C898.954 309.096 898.979 308.884 898.992 308.508C899.004 308.132 899.003 307.622 898.988 307.091C898.973 306.56 898.945 306.051 898.912 305.676C898.878 305.301 898.841 305.091 898.808 305.092Z" fill="#EEEEEE"/>
<path d="M898.976 295.781L888.063 295.739C888.055 295.739 888.046 296.253 888.037 297.168C888.028 298.083 888.02 299.325 888.016 300.619C888.011 301.913 888.009 303.155 888.011 304.07C888.013 304.985 888.018 305.499 888.026 305.499L898.939 305.541C898.947 305.541 898.956 305.027 898.965 304.112C898.973 303.196 898.981 301.955 898.986 300.661C898.991 299.367 898.993 298.125 898.991 297.21C898.989 296.295 898.984 295.781 898.976 295.781Z" fill="#EEEEEE"/>
<path d="M898.976 302.791L888.063 302.75C888.055 302.75 888.046 303.264 888.037 304.179C888.028 305.094 888.02 306.335 888.016 307.63C888.011 308.924 888.009 310.165 888.011 311.08C888.013 311.996 888.018 312.51 888.026 312.51L898.939 312.551C898.947 312.552 898.956 312.037 898.965 311.122C898.973 310.207 898.981 308.966 898.986 307.671C898.991 306.377 898.993 305.136 898.991 304.22C898.989 303.305 898.984 302.791 898.976 302.791Z" fill="#EEEEEE"/>
<path d="M658.627 155.716L609.151 155.527C609.117 155.527 609.083 155.83 609.056 156.37C609.03 156.91 609.013 157.642 609.01 158.405C609.008 159.169 609.018 159.901 609.041 160.441C609.063 160.981 609.095 161.285 609.129 161.285L658.605 161.473C658.639 161.474 658.674 161.17 658.7 160.63C658.726 160.091 658.743 159.358 658.746 158.595C658.749 157.831 658.738 157.099 658.716 156.559C658.693 156.019 658.661 155.716 658.627 155.716Z" fill="#EEEEEE"/>
<path d="M818.979 409L811.047 408.97C811.042 408.97 811.035 409.338 811.029 409.994C811.022 410.65 811.017 411.54 811.013 412.468C811.01 413.395 811.009 414.285 811.01 414.941C811.011 415.597 811.015 415.966 811.021 415.966L818.953 415.996C818.958 415.996 818.965 415.628 818.971 414.972C818.978 414.316 818.983 413.426 818.987 412.498C818.99 411.57 818.991 410.68 818.99 410.024C818.989 409.368 818.985 409 818.979 409Z" fill="#EEEEEE"/>
<path d="M776.084 276.274L704.215 276.001C704.165 276.001 704.103 279.777 704.042 286.502C703.981 293.228 703.926 302.351 703.89 311.863C703.854 321.374 703.839 330.495 703.849 337.221C703.859 343.947 703.892 347.726 703.942 347.726L775.811 347.999C775.861 347.999 775.924 344.221 775.985 337.495C776.046 330.77 776.1 321.649 776.136 312.137C776.173 302.626 776.187 293.503 776.178 286.777C776.168 280.051 776.134 276.274 776.084 276.274Z" fill="#EEEEEE"/>
<path d="M874.979 407L867.055 406.97C867.05 406.97 867.043 407.445 867.035 408.291C867.028 409.138 867.022 410.286 867.017 411.483C867.013 412.68 867.01 413.828 867.011 414.674C867.012 415.521 867.015 415.996 867.021 415.996L874.945 416.026C874.95 416.026 874.957 415.551 874.965 414.704C874.972 413.858 874.978 412.71 874.983 411.513C874.987 410.316 874.99 409.168 874.989 408.322C874.988 407.475 874.985 407 874.979 407Z" fill="#EEEEEE"/>
<path d="M890.537 171.103L812.182 217.933C812.128 217.966 811.891 217.689 811.525 217.163C811.158 216.638 810.691 215.906 810.228 215.13C809.764 214.354 809.34 213.597 809.051 213.025C808.762 212.453 808.63 212.113 808.684 212.081L887.039 165.25C887.094 165.218 887.33 165.495 887.697 166.021C888.063 166.546 888.53 167.278 888.994 168.054C889.458 168.83 889.881 169.587 890.17 170.159C890.46 170.731 890.592 171.071 890.537 171.103Z" fill="#B5C6FD"/>
<path d="M897.778 203.116L807.111 216.127C807.048 216.137 806.934 215.772 806.794 215.115C806.654 214.457 806.5 213.56 806.365 212.62C806.23 211.681 806.126 210.777 806.075 210.107C806.025 209.436 806.032 209.054 806.095 209.045L896.762 196.034C896.825 196.025 896.939 196.39 897.079 197.047C897.219 197.705 897.373 198.602 897.508 199.541C897.643 200.48 897.747 201.385 897.798 202.055C897.848 202.726 897.841 203.107 897.778 203.116Z" fill="#B5C6FD"/>
<path d="M635 165C665.928 165 691 162.09 691 158.5C691 154.91 665.928 152 635 152C604.072 152 579 154.91 579 158.5C579 162.09 604.072 165 635 165Z" fill="#B5C6FD"/>
<path d="M577.5 460C582.747 460 587 456.194 587 451.5C587 446.806 582.747 443 577.5 443C572.253 443 568 446.806 568 451.5C568 456.194 572.253 460 577.5 460Z" fill="#B5C6FD"/>
<defs>
<clipPath id="clip0">
<rect width="564.521" height="430" fill="white" transform="translate(110.042 62)"/>
</clipPath>
<clipPath id="clip1">
<rect width="276" height="375" fill="white"/>
</clipPath>
</defs>
</svg>
