<svg width="405" height="407" viewBox="0 0 405 407" fill="none" xmlns="http://www.w3.org/2000/svg">
<path d="M202.5 38.1562C204.721 38.1551 206.902 37.5668 208.824 36.4506C210.747 35.3343 212.344 33.7294 213.454 31.7969H191.546C192.656 33.7294 194.253 35.3343 196.176 36.4506C198.098 37.5668 200.28 38.1551 202.5 38.1562Z" fill="#B5C6FD"/>
<path d="M259.453 254.375H145.547V317.969C145.547 333.148 151.547 347.706 162.228 358.44C172.909 369.173 187.395 375.203 202.5 375.203C217.605 375.203 232.091 369.173 242.772 358.44C253.453 347.706 259.453 333.148 259.453 317.969V254.375Z" fill="#CCCCCC"/>
<path d="M259.453 197.141H145.547V241.656H259.453V197.141Z" fill="#CCCCCC"/>
<path d="M259.453 133.547H145.547V184.422H259.453V133.547Z" fill="#CCCCCC"/>
<path d="M214.416 40.1785C211.072 42.9814 206.855 44.5165 202.5 44.5165C198.145 44.5165 193.929 42.9814 190.584 40.1785L155.779 101.26L166.968 107.2L196.172 51.6889V76.3124H208.828V51.6889L238.039 107.2L249.227 101.26L214.416 40.1785Z" fill="#B5C6FD"/>
<path d="M146.002 120.828H196.172V82.6719H189.844C180.958 82.6459 172.275 85.3387 164.949 90.3922C159.866 93.8704 155.557 98.3717 152.296 103.611C149.034 108.85 146.891 114.713 146.002 120.828ZM240.07 90.4049C232.74 85.3443 224.05 82.647 215.156 82.6719H208.828V120.828H258.997C258.112 114.716 255.972 108.856 252.713 103.619C249.455 98.3816 245.15 93.8819 240.07 90.4049V90.4049Z" fill="#CCCCCC"/>
</svg>
