<svg width="553" height="430" viewBox="0 0 553 430" fill="none" xmlns="http://www.w3.org/2000/svg">
<g clip-path="url(#clip0)">
<path d="M574.038 356.639H1.50272C1.10417 356.639 0.721972 356.486 0.440158 356.213C0.158343 355.941 0 355.571 0 355.186C0 354.801 0.158343 354.431 0.440158 354.159C0.721972 353.886 1.10417 353.733 1.50272 353.733H574.038C574.437 353.733 574.819 353.886 575.101 354.159C575.382 354.431 575.541 354.801 575.541 355.186C575.541 355.571 575.382 355.941 575.101 356.213C574.819 356.486 574.437 356.639 574.038 356.639Z" fill="#DEDEDE"/>
<path d="M260.579 378.903L259.504 361.124L329.931 348.653L331.517 374.895L260.579 378.903Z" fill="#D99D9D"/>
<path d="M263.99 348.127L266.064 382.416L243.731 383.678L240.352 327.8C243.285 327.634 246.223 328.028 248.998 328.96C251.773 329.892 254.331 331.343 256.526 333.231C258.721 335.118 260.51 337.405 261.791 339.961C263.072 342.517 263.819 345.292 263.99 348.127Z" fill="#7D7D7D"/>
<path d="M291.21 378.74L279.511 392.499L219.048 355.427L236.313 335.121L291.21 378.74Z" fill="#D99D9D"/>
<path d="M267.089 399.095L289.65 372.561L306.932 386.293L270.167 429.534C267.897 427.731 266.017 425.513 264.634 423.008C263.251 420.502 262.393 417.757 262.107 414.931C261.821 412.104 262.114 409.251 262.969 406.534C263.824 403.817 265.224 401.289 267.089 399.095V399.095Z" fill="#7D7D7D"/>
<path d="M257.546 314.757L249.552 351.189C249.368 352.028 249.378 352.896 249.582 353.73C249.786 354.565 250.178 355.346 250.731 356.016C251.284 356.687 251.983 357.231 252.779 357.609C253.575 357.988 254.448 358.191 255.335 358.205L333.924 359.43C334.81 359.444 335.688 359.269 336.495 358.916C337.302 358.563 338.019 358.043 338.594 357.391C339.169 356.739 339.588 355.973 339.82 355.146C340.053 354.32 340.094 353.454 339.94 352.611L333.066 314.953C332.82 313.608 332.092 312.389 331.01 311.511C329.927 310.633 328.559 310.152 327.146 310.152H263.426C262.048 310.152 260.712 310.61 259.642 311.448C258.572 312.286 257.832 313.454 257.546 314.757V314.757Z" fill="#7D7D7D"/>
<path d="M270.578 327.585C270.578 327.585 193.939 281.098 178.912 305.794C171.398 318.142 175.155 330.127 180.79 339.025C186.02 347.126 193.527 353.621 202.433 357.752L264.567 387.145L287.108 363.902L272.081 350.828L270.578 327.585Z" fill="#7D7D7D"/>
<path d="M309.649 320.321C309.649 320.321 408.828 292.719 389.293 345.017C369.757 397.314 296.124 376.976 296.124 376.976L288.611 355.186L314.157 337.753L309.649 320.321Z" fill="#7D7D7D"/>
<path d="M296.5 177C318.868 177 337 158.196 337 135C337 111.804 318.868 93 296.5 93C274.132 93 256 111.804 256 135C256 158.196 274.132 177 296.5 177Z" fill="#D99D9D"/>
<path d="M296.638 176.748C317.022 176.748 333.547 160.773 333.547 141.068C333.547 121.362 317.022 105.388 296.638 105.388C276.254 105.388 259.73 121.362 259.73 141.068C259.73 160.773 276.254 176.748 296.638 176.748Z" fill="#D99D9D"/>
<path d="M301.572 326.086C286.236 325.862 270.978 323.919 256.104 320.295L255.665 320.179L235.069 228.594C233.216 220.546 234.476 212.12 238.611 204.909C242.745 197.698 249.468 192.2 257.509 189.453C282.349 180.837 309.422 180.315 334.598 187.965H334.598C343.046 190.596 350.156 196.21 354.511 203.686C358.866 211.162 360.145 219.951 358.093 228.298L335.089 320.102L334.765 320.251C325.205 324.629 313.251 326.086 301.572 326.086Z" fill="#A9A9A9"/>
<path d="M273.907 333.201C274.655 331.191 275.849 329.365 277.407 327.85C278.964 326.335 280.845 325.169 282.919 324.433C284.993 323.697 287.209 323.41 289.41 323.592C291.611 323.773 293.744 324.419 295.659 325.484L336.212 291.455L339.881 318.197L300.809 346.412C298.745 349.403 295.619 351.559 292.021 352.47C288.423 353.382 284.604 352.986 281.288 351.358C277.972 349.729 275.389 346.982 274.029 343.635C272.668 340.289 272.625 336.576 273.907 333.201V333.201Z" fill="#D99D9D"/>
<path d="M312.583 340.623C311.924 340.623 311.267 340.53 310.635 340.347C309.609 340.058 308.67 339.536 307.895 338.824C307.121 338.112 306.534 337.231 306.184 336.255L301.289 322.849C300.831 321.61 300.772 320.266 301.122 318.994C301.471 317.722 302.212 316.583 303.246 315.727L358.499 283.66L336.718 189.727L337.272 189.598C337.498 189.544 359.813 184.634 368.958 208.207C375.362 224.718 399.06 260.617 397.388 284.876C397.07 289.728 395.07 294.336 391.711 297.954C388.351 301.572 383.828 303.99 378.872 304.818L316.677 339.266C315.505 340.144 314.066 340.621 312.583 340.623Z" fill="#A9A9A9"/>
<path d="M318.781 330.014C318.033 328.005 316.838 326.178 315.281 324.664C313.724 323.149 311.842 321.982 309.768 321.247C307.694 320.511 305.479 320.224 303.277 320.405C301.076 320.587 298.943 321.233 297.028 322.297L256.475 288.268L252.806 315.011L291.878 343.225C293.942 346.216 297.069 348.372 300.667 349.284C304.264 350.195 308.083 349.799 311.399 348.171C314.715 346.543 317.298 343.795 318.659 340.449C320.019 337.102 320.062 333.39 318.781 330.014V330.014Z" fill="#D99D9D"/>
<path d="M284.173 340.623C282.69 340.621 281.251 340.144 280.08 339.266L213.377 307.723C208.42 306.896 203.897 304.478 200.538 300.859C197.178 297.241 195.178 292.634 194.86 287.781C193.188 263.522 221.394 224.718 227.798 208.208C236.942 184.634 259.258 189.542 259.484 189.598L260.038 189.727L233.749 286.565L293.51 315.727C294.544 316.583 295.285 317.722 295.634 318.994C295.984 320.266 295.926 321.61 295.467 322.849L290.572 336.255C290.222 337.231 289.636 338.112 288.861 338.824C288.087 339.536 287.147 340.058 286.121 340.347C285.489 340.53 284.833 340.623 284.173 340.623V340.623Z" fill="#A9A9A9"/>
<path d="M363.746 355.186H230.005C227.216 355.183 224.542 354.11 222.57 352.204C220.598 350.297 219.489 347.713 219.486 345.017V273.834C219.489 271.138 220.598 268.554 222.57 266.647C224.542 264.741 227.216 263.669 230.005 263.665H363.746C366.535 263.669 369.209 264.741 371.181 266.647C373.153 268.554 374.262 271.138 374.265 273.834V345.017C374.262 347.713 373.153 350.297 371.181 352.204C369.209 354.11 366.535 355.183 363.746 355.186V355.186Z" fill="#B5C6FD"/>
<path d="M296.875 318.142C301.855 318.142 305.892 314.24 305.892 309.426C305.892 304.612 301.855 300.709 296.875 300.709C291.896 300.709 287.859 304.612 287.859 309.426C287.859 314.24 291.896 318.142 296.875 318.142Z" fill="white"/>
<path d="M49.0825 339.669C50.939 320.34 56.0667 301.437 64.2607 283.715C66.5445 278.783 69.0581 273.959 71.8016 269.245C71.9392 268.998 71.9723 268.709 71.8941 268.44C71.8158 268.17 71.6321 267.94 71.3819 267.799C71.1317 267.657 70.8345 267.615 70.5529 267.682C70.2713 267.748 70.0275 267.918 69.8728 268.155C59.8958 285.327 52.9063 303.968 49.1837 323.332C48.1481 328.739 47.3698 334.185 46.8487 339.669C46.7163 341.052 48.9509 341.043 49.0825 339.669V339.669Z" fill="#E6E6E6"/>
<path d="M77.2118 272.708C85.025 272.708 91.3589 266.585 91.3589 259.031C91.3589 251.478 85.025 245.355 77.2118 245.355C69.3985 245.355 63.0646 251.478 63.0646 259.031C63.0646 266.585 69.3985 272.708 77.2118 272.708Z" fill="#B5C6FD"/>
<path d="M50.5296 340.032C51.734 327.492 55.0605 315.229 60.3764 303.732C61.8579 300.532 63.4886 297.403 65.2685 294.344C65.3577 294.185 65.3792 293.997 65.3284 293.822C65.2776 293.647 65.1585 293.498 64.9961 293.407C64.8338 293.315 64.641 293.288 64.4584 293.331C64.2758 293.374 64.1176 293.484 64.0172 293.637C57.5447 304.778 53.0102 316.871 50.5952 329.433C49.9234 332.941 49.4185 336.474 49.0805 340.032C48.9946 340.929 50.4443 340.924 50.5296 340.032H50.5296Z" fill="#E6E6E6"/>
<path d="M68.7784 296.591C73.8472 296.591 77.9563 292.619 77.9563 287.719C77.9563 282.819 73.8472 278.846 68.7784 278.846C63.7096 278.846 59.6005 282.819 59.6005 287.719C59.6005 292.619 63.7096 296.591 68.7784 296.591Z" fill="#B5C6FD"/>
<path d="M48.7005 339.195C41.6721 328.591 36.4927 316.944 33.3692 304.718C32.5017 301.314 31.7966 297.877 31.2539 294.407C31.2226 294.228 31.1204 294.068 30.969 293.96C30.8176 293.852 30.6288 293.805 30.4424 293.829C30.2561 293.854 30.0867 293.947 29.9701 294.089C29.8535 294.232 29.7988 294.413 29.8174 294.594C31.8019 307.226 35.9207 319.458 42.0091 330.799C43.7113 333.964 45.561 337.05 47.5579 340.056C48.0611 340.815 49.2005 339.948 48.7005 339.195V339.195Z" fill="#E6E6E6"/>
<path d="M29.8059 295.969C34.8748 295.969 38.9839 291.996 38.9839 287.096C38.9839 282.196 34.8748 278.224 29.8059 278.224C24.7371 278.224 20.628 282.196 20.628 287.096C20.628 291.996 24.7371 295.969 29.8059 295.969Z" fill="#B5C6FD"/>
<path d="M20.525 347.044V329.612C20.527 327.879 21.2401 326.217 22.5078 324.992C23.7756 323.766 25.4944 323.077 27.2872 323.075H69.3633C71.1561 323.077 72.8749 323.766 74.1426 324.992C75.4104 326.217 76.1235 327.879 76.1255 329.612V347.044C76.1235 348.777 75.4104 350.439 74.1426 351.665C72.8749 352.89 71.1561 353.58 69.3633 353.581H27.2872C25.4944 353.58 23.7756 352.89 22.5078 351.665C21.2401 350.439 20.527 348.777 20.525 347.044V347.044Z" fill="#828181"/>
</g>
<defs>
<clipPath id="clip0">
<rect width="553" height="430" fill="white"/>
</clipPath>
</defs>
</svg>
